<svg width="35" height="35" viewBox="0 0 30 30" fill="none"
    xmlns="http://www.w3.org/2000/svg" className="about_icon">
    <path d="M14.9981 6.30554C10.1973 6.30554 6.29199 10.2192 6.29199 15.0304C6.29199 19.8416 10.1973 23.7553 14.9981 23.7553C19.799 23.7553 23.7043 19.8416 23.7043 15.0304C23.7043 10.2192 19.799 6.30554 14.9981 6.30554ZM14.9981 7.43097C18.2773 7.43097 21.0764 9.52707 22.1321 12.4532L19.9955 11.4909C19.945 11.4684 19.8917 11.4572 19.8411 11.4487C19.5632 11.3559 19.2684 11.3052 18.9596 11.3052C18.457 11.3052 17.9994 11.3052 17.6176 11.3024H17.0055C16.9803 11.2968 16.9522 11.294 16.9269 11.294H13.2912C13.2519 11.294 13.2126 11.2968 13.1761 11.3052C13.1424 11.3052 13.1059 11.3024 13.0722 11.3024H12.3815C11.9997 11.3052 11.5449 11.3081 11.0395 11.3081C10.7307 11.3081 10.4359 11.3587 10.158 11.4515C10.1046 11.46 10.0541 11.4712 10.0035 11.4937L7.86702 12.456C8.92265 9.52988 11.7218 7.43378 15.0009 7.43378L14.9981 7.43097ZM11.0395 12.4307C11.5449 12.4307 12.0025 12.4307 12.3843 12.4279H13.0722C13.8611 12.4279 13.9509 12.9737 13.9509 13.3845C13.9509 14.4311 12.5107 15.8351 11.0395 15.8351C10.1018 15.8351 9.34097 15.0726 9.34097 14.1329C9.34097 13.1931 10.1018 12.4307 11.0395 12.4307ZM15.0318 12.6164H14.9644C14.942 12.5488 14.9195 12.4813 14.8915 12.4194H15.102C15.0739 12.4813 15.0515 12.5488 15.029 12.6164H15.0318ZM16.9269 12.425H17.6148C17.9966 12.4279 18.4542 12.4307 18.9596 12.4307C19.8973 12.4307 20.6581 13.1931 20.6581 14.1329C20.6581 15.0726 19.8973 15.8351 18.9596 15.8351C17.4884 15.8351 16.0482 14.4311 16.0482 13.3845C16.0482 12.9737 16.138 12.425 16.9269 12.425ZM14.9981 22.6298C10.8177 22.6298 7.415 19.2198 7.415 15.0304C7.415 14.6281 7.44589 14.2342 7.50765 13.8487L8.29095 13.497C8.24322 13.7024 8.21515 13.9162 8.21515 14.1357C8.21515 15.6944 9.48135 16.9633 11.0367 16.9633C12.8167 16.9633 14.6219 15.5312 14.9981 13.9669C15.3743 15.5312 17.1796 16.9633 18.9596 16.9633C20.5149 16.9633 21.7811 15.6944 21.7811 14.1357C21.7811 13.9162 21.7531 13.7024 21.7053 13.497L22.4886 13.8487C22.5476 14.2342 22.5813 14.6281 22.5813 15.0304C22.5813 19.2198 19.1785 22.6298 14.9981 22.6298Z" fill="#3D98D1"/>
    <path d="M16.2648 17.2166C15.956 17.2166 15.7033 17.4698 15.7033 17.7793C15.7033 17.8918 15.4282 18.1028 14.9986 18.1028C14.569 18.1028 14.2939 17.889 14.2939 17.7793C14.2939 17.4698 14.0412 17.2166 13.7324 17.2166C13.4236 17.2166 13.1709 17.4698 13.1709 17.7793C13.1709 18.5924 13.9739 19.2282 14.9986 19.2282C16.0233 19.2282 16.8263 18.5924 16.8263 17.7793C16.8263 17.4698 16.5736 17.2166 16.2648 17.2166Z" fill="#3D98D1"/>
    <path d="M14.999 5.08448C15.3078 5.08448 15.5605 4.83126 15.5605 4.52176V2.06271C15.5605 1.75322 15.3078 1.5 14.999 1.5C14.6902 1.5 14.4375 1.75322 14.4375 2.06271V4.52176C14.4375 4.83126 14.6902 5.08448 14.999 5.08448Z" fill="#3D98D1"/>
    <path d="M14.999 24.9763C14.6902 24.9763 14.4375 25.2295 14.4375 25.539V27.9981C14.4375 28.3076 14.6902 28.5608 14.999 28.5608C15.3078 28.5608 15.5605 28.3076 15.5605 27.9981V25.539C15.5605 25.2295 15.3078 24.9763 14.999 24.9763Z" fill="#3D98D1"/>
    <path d="M27.9381 14.4677H25.4844C25.1755 14.4677 24.9229 14.7209 24.9229 15.0304C24.9229 15.3399 25.1755 15.5931 25.4844 15.5931H27.9381C28.247 15.5931 28.4996 15.3399 28.4996 15.0304C28.4996 14.7209 28.247 14.4677 27.9381 14.4677Z" fill="#3D98D1"/>
    <path d="M4.51529 14.4677H2.06151C1.75268 14.4677 1.5 14.7209 1.5 15.0304C1.5 15.3399 1.75268 15.5931 2.06151 15.5931H4.51529C4.82411 15.5931 5.07679 15.3399 5.07679 15.0304C5.07679 14.7209 4.82411 14.4677 4.51529 14.4677Z" fill="#3D98D1"/>
    <path d="M23.7528 5.46428L22.0178 7.20306C21.7988 7.42251 21.7988 7.77984 22.0178 7.99929C22.1272 8.10902 22.2704 8.16529 22.4136 8.16529C22.5568 8.16529 22.7 8.10902 22.8095 7.99929L24.5445 6.26051C24.7635 6.04106 24.7635 5.68373 24.5445 5.46428C24.3255 5.24482 23.969 5.24482 23.75 5.46428H23.7528Z" fill="#3D98D1"/>
    <path d="M7.18836 22.0644L5.4533 23.8032C5.23432 24.0226 5.23432 24.3799 5.4533 24.5994C5.5628 24.7091 5.70598 24.7654 5.84916 24.7654C5.99235 24.7654 6.13553 24.7091 6.24503 24.5994L7.98008 22.8606C8.19907 22.6412 8.19907 22.2838 7.98008 22.0644C7.76109 21.8449 7.40453 21.8449 7.18555 22.0644H7.18836Z" fill="#3D98D1"/>
    <path d="M22.8123 22.0644C22.5933 21.8449 22.2367 21.8449 22.0178 22.0644C21.7988 22.2838 21.7988 22.6412 22.0178 22.8606L23.7528 24.5994C23.8623 24.7091 24.0055 24.7654 24.1487 24.7654C24.2919 24.7654 24.435 24.7091 24.5445 24.5994C24.7635 24.3799 24.7635 24.0226 24.5445 23.8032L22.8095 22.0644H22.8123Z" fill="#3D98D1"/>
    <path d="M7.18823 7.99649C7.29773 8.10622 7.44091 8.16249 7.58409 8.16249C7.72728 8.16249 7.87046 8.10622 7.97996 7.99649C8.19894 7.77703 8.19894 7.41971 7.97996 7.20025L6.2449 5.46147C6.02592 5.24201 5.66936 5.24201 5.45037 5.46147C5.23139 5.68093 5.23139 6.03825 5.45037 6.2577L7.18543 7.99649H7.18823Z" fill="#3D98D1"/>
</svg>
