<svg width="30" height="30" viewBox="0 0 30 30" fill="none"
    xmlns="http://www.w3.org/2000/svg" className="beach_icon">
    <path d="M27.4969 15.0284C27.4969 14.0933 27.3919 13.1829 27.1972 12.3035C27.2003 12.254 27.2003 12.2013 27.191 12.1487C27.1787 12.0713 27.1508 12.0031 27.1107 11.9381C25.7357 6.51925 20.8259 2.5 14.9985 2.5C14.0653 2.5 13.1569 2.60528 12.2825 2.80036C12.233 2.79726 12.1805 2.79727 12.128 2.80655C12.0507 2.81894 11.9828 2.84681 11.9179 2.88706C6.51063 4.265 2.5 9.18533 2.5 15.0284C2.5 15.9636 2.60506 16.8739 2.79972 17.7533C2.79663 17.8029 2.79663 17.8555 2.8059 17.9082C2.81826 17.9856 2.84606 18.0568 2.88623 18.1218C4.26431 23.5376 9.17099 27.5568 14.9985 27.5568C15.9316 27.5568 16.84 27.4516 17.7175 27.2565C17.733 27.2565 17.7484 27.2596 17.7639 27.2596C17.7979 27.2596 17.8349 27.2596 17.872 27.2503C17.9493 27.2379 18.0172 27.21 18.0821 27.1698C23.4894 25.7918 27.5 20.8715 27.5 15.0284H27.4969ZM14.9985 20.4442C12.0198 20.4442 9.5943 18.0134 9.5943 15.0284C9.5943 12.0434 12.0198 9.61265 14.9985 9.61265C17.9771 9.61265 20.4026 12.0434 20.4026 15.0284C20.4026 18.0134 17.9771 20.4442 14.9985 20.4442ZM3.73594 15.0284C3.73594 14.3782 3.79465 13.7403 3.8997 13.1179L8.46033 13.9137C8.39853 14.276 8.35836 14.6475 8.35836 15.0284C8.35836 15.4588 8.40162 15.88 8.48196 16.2887L3.92751 17.0845C3.80392 16.4187 3.73594 15.7313 3.73594 15.0315V15.0284ZM21.515 13.7712L26.0694 12.9754C26.193 13.6412 26.261 14.3286 26.261 15.0284C26.261 15.6787 26.2023 16.3166 26.0972 16.939L21.5366 16.1432C21.5984 15.7809 21.6385 15.4093 21.6385 15.0284C21.6385 14.598 21.5953 14.1769 21.515 13.7681V13.7712ZM25.782 11.7678L21.1658 12.5729C20.4737 10.8327 19.0678 9.45473 17.3097 8.79827L18.113 4.18449C21.7776 5.24349 24.679 8.11704 25.782 11.7678ZM16.9049 3.90581L16.1108 8.47623C15.7493 8.41431 15.3785 8.37405 14.9985 8.37405C14.569 8.37405 14.1487 8.4174 13.7409 8.49791L12.9468 3.93368C13.6111 3.80982 14.2971 3.74169 14.9954 3.74169C15.6442 3.74169 16.2807 3.80053 16.9018 3.90581H16.9049ZM11.7448 4.22475L12.5482 8.85091C10.8117 9.54453 9.43672 10.9534 8.78167 12.7153L4.17779 11.9102C5.23452 8.23781 8.1019 5.3302 11.7448 4.22475ZM4.21796 18.289L8.8342 17.4839C9.52633 19.2242 10.9322 20.6021 12.6903 21.2586L11.887 25.8723C8.22241 24.8133 5.32104 21.9398 4.21796 18.289ZM13.092 26.151L13.8861 21.5806C14.2476 21.6425 14.6184 21.6828 14.9985 21.6828C15.4279 21.6828 15.8482 21.6394 16.2529 21.5589L17.047 26.1232C16.3827 26.247 15.6968 26.3151 14.9985 26.3151C14.3496 26.3151 13.7131 26.2563 13.092 26.151ZM18.2521 25.8352L17.4487 21.209C19.1852 20.5154 20.5602 19.1065 21.2152 17.3446L25.8191 18.1497C24.7624 21.8221 21.895 24.7297 18.2521 25.8352Z" fill="#3D98D1"/>
</svg>
