<svg width="35" height="35" viewBox="0 0 30 30" fill="none"
    xmlns="http://www.w3.org/2000/svg" className="home_icon">
    <path d="M23.8347 10.3311C25.4377 10.3311 26.7427 9.02328 26.7427 7.41688C26.7427 5.81048 25.4403 4.5 23.8347 4.5C22.2292 4.5 20.9268 5.80784 20.9268 7.41424C20.9268 9.02064 22.2318 10.3285 23.8347 10.3285V10.3311ZM23.8347 5.55684C24.8577 5.55684 25.6882 6.39175 25.6882 7.41424C25.6882 8.43674 24.8551 9.27164 23.8347 9.27164C22.8144 9.27164 21.9813 8.43674 21.9813 7.41424C21.9813 6.39175 22.8144 5.55684 23.8347 5.55684Z" fill="#3D98D1"/>
    <path d="M26.057 24.4162C25.9937 24.4162 19.6979 24.3792 17.9631 24.3792C17.6837 24.3792 17.42 24.3317 17.1643 24.2577C17.159 24.2339 17.1511 24.2128 17.1432 24.189L14.193 17.3618C15.2977 16.9893 16.5368 16.7805 17.826 16.8413C18.0396 16.8519 18.2426 16.7277 18.3322 16.5295C19.429 14.0856 22.4688 13.5651 22.5004 13.5598C22.6982 13.5281 22.8616 13.3854 22.9196 13.1926C22.9776 12.9997 22.9223 12.791 22.7773 12.6509C20.7208 10.7116 18.0185 9.6442 15.1738 9.6442C13.7659 9.6442 12.4187 9.90841 11.1796 10.3866L10.8447 9.6125C10.7287 9.34565 10.4176 9.22147 10.1514 9.33772C9.88508 9.45397 9.76116 9.76574 9.87717 10.0326L10.2146 10.8147C6.62644 12.6086 4.16137 16.2838 4.16137 20.5191C4.16137 20.7173 4.27474 20.8996 4.45138 20.9894C4.5252 21.0264 4.60693 21.0449 4.68866 21.0449C4.79939 21.0449 4.91012 21.0105 5.00239 20.9418C5.07621 20.8864 6.84526 19.6155 9.59507 20.1888C9.67153 20.2311 9.75853 20.2549 9.84817 20.2549C9.8798 20.2549 9.91408 20.2523 9.94571 20.247C10.1303 20.2126 10.2726 20.0832 10.3385 19.9194C10.9238 19.1241 11.9362 18.3288 13.2123 17.7449L15.738 23.5866C15.0683 23.2193 14.3697 22.8574 13.4759 22.7649C12.2842 22.6434 11.4643 23.0185 10.8078 23.3224C10.4282 23.4968 10.1013 23.6474 9.7928 23.6579C9.53443 23.6659 9.23915 23.6394 8.93069 23.6077C8.09757 23.5258 7.06145 23.4254 6.0886 24.0675C5.17903 24.6672 4.31165 24.4426 4.26946 24.4321C3.99 24.3528 3.69999 24.514 3.6209 24.794C3.53917 25.0741 3.69999 25.3674 3.97945 25.4493C4.00582 25.4572 4.29319 25.5391 4.73084 25.5391C5.24231 25.5391 5.95151 25.4281 6.67126 24.9552C7.33564 24.5193 8.0633 24.5906 8.83314 24.6646C9.16269 24.6963 9.50279 24.7306 9.83235 24.7174C10.3544 24.6989 10.8105 24.4902 11.2508 24.2868C11.8466 24.012 12.4662 23.7266 13.3704 23.8191C14.0955 23.8931 14.6966 24.2233 15.3346 24.5721C16.1097 24.9975 16.9112 25.4361 17.9658 25.4361C19.6953 25.4361 25.9884 25.4704 26.0517 25.4731H26.0544C26.3444 25.4731 26.579 25.2379 26.5816 24.9473C26.5816 24.6566 26.3496 24.4189 26.057 24.4162ZM21.3061 12.7883C20.299 13.1265 18.7804 13.8557 17.8049 15.3194C16.0253 12.7857 13.8872 11.6046 12.4899 11.0709C13.3441 10.8358 14.2431 10.7063 15.1738 10.7063C17.4174 10.7063 19.5608 11.4382 21.3061 12.7883ZM5.25813 19.6023C5.55077 16.5005 7.31719 13.8108 9.85871 12.2255C9.34461 13.5889 8.7725 15.943 9.20488 19.0554C7.45692 18.8255 6.08597 19.2324 5.25813 19.6023ZM10.2014 18.4873C9.8218 15.005 10.7973 12.5981 11.2086 11.7711C12.1419 12.0089 14.7572 12.9125 16.8505 15.8003C15.7986 15.8664 14.657 16.0962 13.5629 16.4873C13.4627 16.4688 13.3573 16.4793 13.2571 16.5216C13.1727 16.5586 13.1042 16.6167 13.0514 16.6854C11.9837 17.1266 10.9897 17.729 10.2041 18.4873H10.2014Z" fill="#3D98D1"/>
</svg>
